<svg width="1014" height="512" xmlns="http://www.w3.org/2000/svg">

 <g>
  <title>background</title>
  <rect fill="none" id="canvas_background" height="514" width="1016" y="-1" x="-1"/>
 </g>
 <g>
  <title>Layer 1</title>
  <path stroke="null" fill="#00bf5f" id="svg_2" fill-rule="evenodd" clip-rule="evenodd" d="m211.865983,309.871627l0,77.692134l57.411599,-16.27299l0,-77.692134l-57.411599,16.27299zm119.883346,-33.973539l-57.431788,16.273842l0,77.692134l57.431788,-16.554924l0,-77.411051zm0,-83.202208l-57.431788,16.27299l0,77.692134l57.431788,-16.532778l0,-77.432345zm-62.460441,16.27299l-57.422097,-16.27299l0,77.713428l57.422097,16.27299l0,-77.713428zm2.509885,-34.66347l-52.269081,14.803693l-0.491802,0.129468l52.760882,14.954456l52.769765,-14.954456l-52.769765,-14.933162zm-64.972749,18.39048l-57.431788,16.27299l0,77.713428l57.431788,-16.27299l0,-77.713428zm-7.1711,-3.457318l-0.593554,-0.151614l-52.176212,-14.781547l-52.771381,14.933162l52.771381,14.954456l52.769765,-14.954456zm-50.250997,104.360076l0,77.692134l57.422097,16.27299l0,-77.692134l-57.422097,-16.27299zm-62.461248,-23.577735l57.420482,16.640101l0,-77.692134l-57.420482,-16.27299l0,77.325023zm0,5.877186l0,77.303729l57.420482,16.663099l0,-77.692134l-57.420482,-16.274693zm175.163804,-104.33793l-52.760882,-14.954456l-52.769765,14.955308l52.769765,14.933162l52.760882,-14.934014zm-57.800034,-98.373865c0,-1.448002 0.572557,-2.786978 1.475405,-3.760547c0.921422,-0.972717 2.170711,-1.555325 3.563746,-1.555325c1.372846,0 2.632633,0.58346 3.54598,1.555325c0.922229,0.973569 1.494787,2.312545 1.494787,3.760547l0,20.681731c0,1.470148 -0.572557,2.786978 -1.474598,3.739253c-0.932728,0.971865 -2.192515,1.577471 -3.565361,1.577471c-1.393035,0 -2.642324,-0.605606 -3.554055,-1.555325c-0.912539,-0.973569 -1.485096,-2.290399 -1.485096,-3.760547l0,-20.682582l-0.000808,0zm91.044703,22.865659c0.686423,-1.254651 1.812964,-2.118342 3.042872,-2.465011c1.239599,-0.345817 2.610829,-0.194203 3.810858,0.54002c1.198414,0.735074 2.007585,1.924991 2.337068,3.220527c0.337559,1.296388 0.203504,2.74439 -0.503108,4.019484l-9.803733,17.916046c-0.696921,1.275094 -1.82427,2.11749 -3.05337,2.464159c-1.240406,0.344965 -2.610829,0.215497 -3.810858,-0.519577c-1.198414,-0.733371 -2.007585,-1.922436 -2.335453,-3.218824c-0.339174,-1.317682 -0.205119,-2.745242 0.501492,-4.019484l9.814232,-17.937341zm67.973628,67.836349c1.198414,-0.735074 2.571259,-0.886688 3.810858,-0.540871c1.229101,0.345817 2.356449,1.211211 3.042872,2.485453c0.706612,1.2538 0.839859,2.701802 0.503108,3.99819c-0.318177,1.318534 -1.137847,2.505896 -2.337068,3.218824l-16.985331,10.351512c-1.208104,0.735074 -2.581757,0.886688 -3.811666,0.540871c-1.228293,-0.344965 -2.355642,-1.209508 -3.052563,-2.464159c-0.696921,-1.275094 -0.839859,-2.722244 -0.512798,-4.019484c0.328675,-1.296388 1.147537,-2.485453 2.346759,-3.220527l16.99583,-10.349809zm26.718807,94.569878c1.371231,0 2.642324,0.605606 3.544365,1.557028c0.923037,0.972717 1.495594,2.312545 1.495594,3.759695c0,1.448002 -0.572557,2.78783 -1.475405,3.739253c-0.921422,0.972717 -2.192515,1.578322 -3.563746,1.578322l-19.61958,0c-1.382536,0 -2.632633,-0.605606 -3.554863,-1.556177c-0.921422,-0.972717 -1.485096,-2.312545 -1.485096,-3.760547c0,-1.44715 0.563674,-2.786978 1.474598,-3.759695c0.932728,-0.951423 2.182825,-1.557028 3.565361,-1.557028l19.618772,0l0,-0.000852zm-21.699037,96.01788c1.198414,0.735074 2.018891,1.924139 2.337068,3.220527c0.336751,1.296388 0.203504,2.745242 -0.491802,4.019484c-0.696921,1.275945 -1.82427,2.118342 -3.05337,2.465011c-1.239599,0.344965 -2.611637,0.215497 -3.810858,-0.519577l-16.99583,-10.350661c-1.199221,-0.735074 -2.018083,-1.923288 -2.33626,-3.219676c-0.338366,-1.296388 -0.195429,-2.745242 0.501492,-4.020336c0.696921,-1.252948 1.82427,-2.11749 3.052563,-2.464159c1.229101,-0.344965 2.603561,-0.216349 3.811666,0.518726l16.985331,10.350661zm-64.306515,71.706774c0.706612,1.2538 0.840666,2.723096 0.503108,4.020336c-0.328675,1.296388 -1.137847,2.484601 -2.337068,3.219676c-1.208912,0.734222 -2.571259,0.864543 -3.810858,0.518726c-1.229101,-0.345817 -2.356449,-1.189065 -3.042872,-2.464159l-9.814232,-17.916046c-0.706612,-1.274242 -0.840666,-2.722244 -0.501492,-4.019484c0.32706,-1.296388 1.136232,-2.485453 2.335453,-3.220527c1.199221,-0.734222 2.570452,-0.885837 3.810858,-0.54002c1.229101,0.345817 2.356449,1.21036 3.042872,2.485453l9.814232,17.916046zm-89.652476,28.180679c0,1.448002 -0.572557,2.78783 -1.474598,3.739253c-0.932728,0.973569 -2.192515,1.578322 -3.565361,1.578322c-1.393035,0 -2.642324,-0.604754 -3.554055,-1.556177c-0.912539,-0.972717 -1.485096,-2.312545 -1.485096,-3.760547l0,-20.703025c0,-1.448002 0.572557,-2.766536 1.475405,-3.739253c0.921422,-0.972717 2.170711,-1.556177 3.563746,-1.556177c1.372846,0 2.632633,0.584311 3.54598,1.556177c0.922229,0.972717 1.494787,2.290399 1.494787,3.739253l0,20.702173l-0.000808,0zm-91.054394,-22.885249c-0.685615,1.274242 -1.813771,2.11749 -3.042065,2.464159c-1.240406,0.344965 -2.613252,0.215497 -3.812473,-0.518726c-1.196798,-0.735074 -2.018083,-1.923288 -2.335453,-3.219676c-0.336751,-1.296388 -0.193814,-2.745242 0.501492,-4.020336l9.814232,-17.937341c0.68723,-1.2538 1.813771,-2.11749 3.054178,-2.464159c1.228293,-0.345817 2.601946,-0.195054 3.810051,0.54002c1.188723,0.735074 2.008392,1.924139 2.335453,3.220527c0.328675,1.296388 0.185738,2.745242 -0.511991,4.019484l-9.813424,17.916046zm-67.963129,-67.816759c-1.208912,0.735074 -2.581757,0.865394 -3.810051,0.519577c-1.240406,-0.345817 -2.356449,-1.189065 -3.054178,-2.465011c-0.695306,-1.274242 -0.839051,-2.722244 -0.511183,-4.019484s1.147537,-2.485453 2.345143,-3.220527l16.99583,-10.350661c1.198414,-0.735074 2.572067,-0.864543 3.811666,-0.518726c1.228293,0.345817 2.355642,1.211211 3.042872,2.464159c0.706612,1.275094 0.840666,2.723096 0.501492,4.020336c-0.32706,1.296388 -1.136232,2.484601 -2.335453,3.219676l-16.986139,10.350661zm-26.728498,-94.569878c-1.383344,0 -2.633441,-0.605606 -3.554055,-1.556177c-0.912539,-0.972717 -1.47702,-2.312545 -1.47702,-3.760547c0,-1.44715 0.563674,-2.786978 1.47702,-3.759695c0.920614,-0.951423 2.170711,-1.557028 3.554055,-1.557028l19.618772,0c1.372846,0 2.642324,0.605606 3.554055,1.557028c0.912539,0.972717 1.486711,2.312545 1.486711,3.759695c0,1.448002 -0.574173,2.78783 -1.475405,3.739253c-0.923037,0.972717 -2.192515,1.578322 -3.565361,1.578322l-19.618772,0l0,-0.000852zm21.69823,-96.040877c-1.197606,-0.712928 -2.018083,-1.90029 -2.335453,-3.218824c-0.336751,-1.296388 -0.193814,-2.745242 0.501492,-4.020336c0.697729,-1.252948 1.813771,-2.11749 3.054178,-2.464159c1.228293,-0.345817 2.601946,-0.195054 3.810051,0.540871l16.986946,10.350661c1.198414,0.735074 2.007585,1.924139 2.335453,3.220527c0.338366,1.296388 0.205119,2.74439 -0.501492,4.019484c-0.68723,1.254651 -1.813771,2.118342 -3.042872,2.464159c-1.250097,0.345817 -2.613252,0.195054 -3.811666,-0.540871l-16.996637,-10.351512zm64.305707,-71.683776c-0.695306,-1.275094 -0.839051,-2.722244 -0.511183,-4.019484c0.32706,-1.295536 1.147537,-2.485453 2.345143,-3.220527c1.199221,-0.733371 2.572067,-0.885837 3.812473,-0.54002c1.228293,0.345817 2.356449,1.21036 3.042065,2.465011l9.814232,17.937341c0.697729,1.252948 0.840666,2.701802 0.511991,4.019484c-0.32706,1.296388 -1.14673,2.485453 -2.345143,3.199233c-1.198414,0.755516 -2.572067,0.884985 -3.80036,0.54002c-1.240406,-0.345817 -2.366947,-1.189065 -3.054178,-2.464159l-9.815039,-17.916898zm41.93236,188.774348l52.769765,14.93231l52.760882,-14.93231l-52.760882,-14.95616l-52.769765,14.95616z"/>
  <text font-weight="bold" xml:space="preserve" text-anchor="start" font-family="Helvetica, Arial, sans-serif" font-size="200" id="svg_3" y="340.954777" x="419.074186" stroke-opacity="null" stroke-width="0" stroke="null" fill="#005fbf">Cubik</text>
 </g>
</svg>