<?xml version="1.0" encoding="utf-8"?>
<!-- Generator: Adobe Illustrator 19.2.0, SVG Export Plug-In . SVG Version: 6.00 Build 0)  -->
<svg version="1.1" id="Layer_1" xmlns="http://www.w3.org/2000/svg" xmlns:xlink="http://www.w3.org/1999/xlink" x="0px" y="0px"
	 viewBox="0 0 800 256.7" style="enable-background:new 0 0 800 256.7;" xml:space="preserve">
<style type="text/css">
	.st0{fill-rule:evenodd;clip-rule:evenodd;fill:#FFC711;}
	.st1{fill-rule:evenodd;clip-rule:evenodd;fill:#3F76BA;}
	.st2{fill-rule:evenodd;clip-rule:evenodd;fill:#7DC143;}
	.st3{fill-rule:evenodd;clip-rule:evenodd;fill:#43B54A;}
	.st4{fill:#43B54A;}
	.st5{fill-rule:evenodd;clip-rule:evenodd;fill:#399847;}
	.st6{fill-rule:evenodd;clip-rule:evenodd;fill:#318942;}
	.st7{fill:#3F76BA;}
</style>
<g>
	<g>
		<path class="st0" d="M218.8,66.1c-1.1-5.6-4.2-10.1-7.9-14.2c-8.1-8.7-18.3-13.7-30-15.8c-7.1-1.2-14.2-1.2-21.3-0.1
			c-12,1.4-23.1,5.1-32.9,12.1c-4.3,3.1-8,6.7-10.2,11.7c-1.9,4.4-1.5,8.5,1.6,12.4c5.7,7.1,12.2,13.4,19.9,18.4
			c6,3.9,12.4,7,19.6,8.1l0,0c1.5,0.5,3,0.7,4.6,0.7c13,0.4,25.5-1.7,37.2-7.6c7.7-3.9,14.1-9.1,18.3-16.8
			C219.1,72.1,219.4,69.2,218.8,66.1z"/>
		<path class="st1" d="M210.3,206.7c-2.8-3.8-6.4-6.8-10.3-9.6c-4.4-3.1-8.8-6.2-14-7.8c-4.4-1.9-8.9-3.5-13.8-3.7
			c-6.2-0.9-12.3-0.5-18.3,1.2l0,0c-0.4,0.1-0.7,0.3-1.1,0.4c-4.5,0.9-8.7,2.5-12.6,4.8c-6,2.7-11.2,6.7-16.1,10.9
			c-3.2,2.7-6.3,5.5-8.6,8.9c-3.4,5-2.5,9.6,2.5,13c5.1,3.5,10.9,5.1,16.9,6.1c4,0.7,8,1.8,12.2,1.6c6.8,0.9,13.5,0.9,20.3,0.4
			c4.8,0.1,9.5-0.6,14.2-1.3c0.9-0.1,1.7-0.2,2.6-0.3c7.8-1.4,15.5-3.1,22.3-7.4C213.4,219.6,215.5,213.8,210.3,206.7z"/>
		<path class="st2" d="M295.3,138.2c-2.5-2.7-5.2-5.2-7.8-7.8c-0.3-0.3-0.6-0.7-0.9-1c-13-12.8-26-25.7-39-38.5
			c-6.6-6.5-14.9-6.5-21.6,0c-5.4,5.2-10.5,10.8-16.4,15.5c-0.9,0.6-1.7,1.1-2.6,1.7c-4.3,3.1-9,5.3-13.8,7.3
			c-8.5,3.4-17.4,3.9-26.5,3.4c-2-0.1-4.2-0.2-6.1-1.1l0,0c-0.4-0.1-0.7-0.3-1.1-0.4c-6.5-1.6-12.7-4.1-18.6-7.2
			c-6-3.2-11.4-7.1-16.8-11.1c0.1,0.8,0.8,1.1,1.3,1.6c1.9,2,3.6,3.6,5.2,5.8c0,0,1.2,1.5,1.7,2.1c3.1,3.2,6.4,6.1,9.3,9.5
			c0.6,0.9,1.5,1.6,2.2,2.4c2.4,2.5,5,4.7,7.2,7.3c2.7,3.3,6.2,5.9,9.1,9c6,6.5,12.6,12.5,18.6,18.9c4.3,4.5,8.8,8.8,13.2,13.1
			c1.3,1.3,2.2,2.9,3.7,3.9c2.8,2.2,4.8,5.2,7.4,7.6c2,2.2,3.4,3.3,3.4,3.3c0.8,0.7,1.6,1.3,2.4,2c4.7,3.9,8.7,8.5,13.2,12.5
			c2,2,3.9,4.1,6.1,6c5.1,4.5,13,4.7,18.3,0.2c2.2-1.9,4.2-4.1,6.2-6.1c0.3-0.2,0.6-0.5,0.9-0.7c12.5-12.4,25-24.7,37.5-37.1
			c0.3-0.3,0.5-0.6,0.7-0.9c1.4-1.1,2.7-2.4,3.8-3.8C299.7,150.5,299.7,143,295.3,138.2z"/>
		<path class="st3" d="M196,172.3L196,172.3L196,172.3c-8.5-8.6-17-17.3-25.5-25.9c-6.3-6.4-12.7-12.7-19.1-19.1
			c-0.2-0.7-0.9-1.1-1.3-1.6c-2.7-2.7-5.4-5.4-8.1-8.1l0,0l0,0c-0.2-0.7-0.9-1.1-1.4-1.6c-3.2-3.2-9.6-9.7-9.6-9.7s-4.9-5.5-6.9-7.5
			c-2.3-2.2-4.7-4.5-7-6.7c-3.1-2.9-5.8-6.1-9-8.7c-2.1-2.3-4.2-4.5-6.6-6.5c-4.5-3.8-10.6-3.8-14.9,0.2c-4.5,4.1-8.7,8.5-13,12.8
			c-0.6,0.5-1.2,1-1.7,1.6c-14.7,14.6-29.5,29.2-44.3,43.7c-2.5,2.5-4.9,5-6,8.4c0,0-0.4,1.2-0.4,2.2c0,1,0.4,2.1,0.4,2.1
			c1,3.3,3.2,5.8,5.6,8.2c3,2.8,5.8,5.7,8.7,8.6c13.5,13.3,26.9,26.6,40.4,39.9c3.5,3.4,6.8,7,10.4,10.2c4.3,3.8,11,3.7,15.1-0.3
			c10.2-10,20.4-20,30.5-30c4.1-3.2,8.4-6,12.9-8.5c1.7-0.7,3.4-1.5,5.1-2.2c9.7-3.8,19.6-4.6,29.8-2.4c5.8,1.2,11.3,3.4,16.6,6.1
			c3.3,2.1,6.5,4.1,9.8,6.2c0-0.1,0.8,0.7,0.3,0.3C203.2,180.3,199.8,175.7,196,172.3z"/>
		<g>
			<path class="st4" d="M196.3,172.6l4.8,4.9C199.5,175.8,198,174.1,196.3,172.6z"/>
			<path class="st5" d="M180.2,171.2c5.8,1.2,11.3,3.4,16.6,6.1c3.3,2.1,6.5,4.1,9.8,6.2c0,0,0,0,0.1,0c-1.8-1.8-3.7-4-5.5-6
				l-4.8-4.9c-0.1-0.1-0.2-0.2-0.3-0.3c-8.5-8.6-17-17.3-25.5-25.9c-6.3-6.4-12.7-12.7-19.1-19.1c-0.2-0.7-0.9-1.1-1.3-1.6
				c-2.7-2.7-5.4-5.4-8.1-8.1l0,0c-0.2-0.7-0.9-1.1-1.4-1.6c-3.2-3.2-6.4-6.4-9.5-9.7c0,0,0,0,0,0c0,0-4.9-5.5-6.9-7.5
				c-0.1-0.1-0.2-0.2-0.3-0.3l42.6,71.5C171,169.9,175.6,170.2,180.2,171.2z"/>
			<path class="st6" d="M206.7,183.5c0.1,0.1,0.2,0.3,0.4,0.4C207.1,184,206.8,183.6,206.7,183.5z"/>
		</g>
	</g>
	<g>
		<path class="st7" d="M343.6,98.3c14.7-13.8,35.9-20.6,55.3-20.6c41.2,0,58.2,22.3,58.2,46.5v71.2c0,9.7,0.3,17.9,1.2,25.3h-23.5
			c-0.6-7.1-0.9-14.1-0.9-21.2h-0.6c-11.8,17.9-27.7,24.7-48.8,24.7c-25.9,0-48.2-14.7-48.2-41.8c0-35.9,34.4-48.2,76.8-48.2h19.4
			v-5.9c0-14.4-10.6-29.4-33.2-29.4c-20.3,0-30,8.5-39.7,15.9L343.6,98.3z M418.3,153.6c-25,0-55.6,4.4-55.6,26.8
			c0,15.9,11.8,22.7,30,22.7c29.4,0,39.7-21.8,39.7-40.6v-8.8H418.3z"/>
		<path class="st7" d="M565.2,105h-37.7v62.8c0,15.5,0,31.9,19.9,31.9c6.1,0,13.4-0.9,18.7-4.1v24c-6.1,3.5-18.4,4.7-23.7,4.7
			c-40.6,0-41.2-24.8-41.2-47.1V105h-30.4V82.2h30.4V43.3h26.3v38.9h37.7V105z"/>
		<path class="st7" d="M600.4,22.3c10.6,0,19.5,8.9,19.5,19.5c0,10.6-8.9,19.5-19.5,19.5c-10.6,0-19.5-8.9-19.5-19.5
			C580.9,31.2,589.8,22.3,600.4,22.3z M587.4,82.1h26.5v138.7h-26.5V82.1z"/>
		<path class="st7" d="M685,145.9l-48.6-63.7h34.4l32.9,48l32.2-48h32.3l-46.7,63.7l56.9,75H744l-41.5-58.9L661,220.8h-32.9
			L685,145.9z"/>
	</g>
</g>
</svg>
